<?xml version="1.0" encoding="UTF-8"?>
<svg width="35px" height="27px" viewBox="0 0 35 27" version="1.1" xmlns="http://www.w3.org/2000/svg" xmlns:xlink="http://www.w3.org/1999/xlink">
    <!-- Generator: Sketch 50.2 (55047) - http://www.bohemiancoding.com/sketch -->
    <title>Artboard</title>
    <desc>Created with Sketch.</desc>
    <defs></defs>
    <g id="Artboard" stroke="none" stroke-width="1" fill="none" fill-rule="evenodd">
        <g id="Icon_White_Vector" fill="#FFFFFF">
            <path d="M18.4397818,23.2515626 C18.9648323,24.0497919 19.134621,24.2568134 19.4509928,24.6805233 C20.7609881,26.4349709 22.9259906,26.9995125 24.1174413,26.9995125 C27.9118103,26.9995125 29.3998886,23.9772001 30.033995,21.9614778 C30.6681013,19.9457555 34.7295143,7.6921146 34.7295143,7.6921146 C34.7295143,7.6921146 35.6223899,5.23330811 34.1636675,2.76296785 C32.7049452,0.292627653 29.8086005,0 29.643438,0 L5.52466295,0 C5.52466295,0 2.1941018,0.137180989 0.8275798,2.66424844 C-0.5389422,5.19131584 0.1707296,6.9333353 0.29181085,7.35382278 C0.41289205,7.77431021 4.32906485,19.7021687 5.0735928,21.9614778 C5.81812075,24.2207868 7.1763018,26.9496114 10.9309978,26.9995125 C14.6856939,27.0494136 16.6713024,23.2515626 16.6713024,23.2515626 L22.6145426,13.970898 C22.6145426,13.970898 23.3526203,12.9486785 23.3526203,10.8196901 C23.3526203,8.69070168 21.2830984,5.39525135 17.5,5.39525135 C13.7169016,5.39525135 11.6658836,8.60784705 11.6658836,10.8196901 C11.6658836,13.0315332 12.4981092,14.1404676 12.4981092,14.1404676 L14.1474548,16.7716683 L16.4339851,13.5 C16.4339851,13.5 15.5546856,12.1699388 15.5546856,11.1954549 C15.5546856,10.220971 16.1235027,9.2632463 17.5,9.2632463 C18.8764973,9.2632463 19.4509928,10.3855505 19.4509928,11.1954549 C19.4509928,12.0053593 18.9640554,12.731185 18.9640554,12.731185 C18.9640554,12.731185 14.3897123,19.2476578 13.8341352,20.1298246 C13.2785581,21.0119915 12.3505221,22.7636012 10.9226856,22.7636012 C9.49484905,22.7636012 8.88449155,21.8013996 8.19419185,19.7134328 C6.72335665,15.2645607 3.9957753,6.54278852 3.9957753,6.54278852 C3.9957753,6.54278852 3.71872305,5.45447362 4.2262999,4.66914316 C4.73387675,3.88381269 5.85422245,3.85768521 5.85422245,3.85768521 L29.1909535,3.85768521 C29.7623248,3.85768521 31.6518853,4.54387252 31.0261961,6.42669784 C30.4005069,8.30952315 27.704894,16.3836637 26.4609733,19.7134328 C26.2417704,20.3002027 25.5537904,22.7716999 23.7562402,22.7716999 C22.4449149,22.7716999 21.8436414,21.5379774 20.5597719,19.7134328 C19.7218462,20.9957501 19.0896492,22.2604137 18.4397818,23.2515626 Z" id="Shape"></path>
        </g>
    </g>
</svg>